<svg width="36" height="36" viewBox="0 0 36 36" fill="none" xmlns="http://www.w3.org/2000/svg">
<path d="M28.095 8.115L26.175 9.615L18 15.69L9.82499 9.555L7.90499 8.055C7.45267 7.68082 6.90051 7.44756 6.31692 7.38412C5.73333 7.32069 5.14395 7.42986 4.6218 7.69812C4.09965 7.96638 3.66768 8.38194 3.3794 8.89331C3.09112 9.40468 2.9592 9.98939 2.99999 10.575V27.96C2.99999 28.501 3.21492 29.0199 3.59749 29.4025C3.98006 29.7851 4.49895 30 5.03999 30H9.82499V18.42L18 24.555L26.175 18.42V30H30.96C31.501 30 32.0199 29.7851 32.4025 29.4025C32.7851 29.0199 33 28.501 33 27.96V10.575C33.0282 9.99444 32.8871 9.4182 32.5939 8.91633C32.3007 8.41446 31.868 8.00857 31.3484 7.74799C30.8289 7.48742 30.2448 7.38339 29.6672 7.44854C29.0897 7.51369 28.5434 7.74523 28.095 8.115Z" fill="#F5F5F5"/>
</svg>
