<svg width="28" height="30" viewBox="0 0 28 30" fill="none" xmlns="http://www.w3.org/2000/svg">
<path d="M10.5 25.5C4.05 27.6 4.05 21.75 1.5 21M19.5 28.5V23.25C19.5 21.75 19.65 21.15 18.75 20.25C22.95 19.8 27 18.15 27 11.25C26.9982 9.45745 26.2988 7.73597 25.05 6.45C25.6357 4.89295 25.5818 3.16744 24.9 1.65C24.9 1.65 23.25 1.2 19.65 3.6C16.6009 2.80588 13.3991 2.80588 10.35 3.6C6.75 1.2 5.1 1.65 5.1 1.65C4.41822 3.16744 4.3643 4.89295 4.95 6.45C3.70118 7.73597 3.00183 9.45745 3 11.25C3 18.15 7.05 19.8 11.25 20.25C10.35 21.15 10.35 22.05 10.5 23.25V28.5" stroke="#F5F5F5" stroke-width="2" stroke-linecap="round" stroke-linejoin="round"/>
</svg>
