<svg width="37" height="36" viewBox="0 0 37 36" fill="none" xmlns="http://www.w3.org/2000/svg">
    <g clip-path="url(#clip0_35_72)">
    <path d="M6.66669 12C6.66669 10.4087 7.29883 8.88258 8.42405 7.75736C9.54926 6.63214 11.0754 6 12.6667 6H24.6667C26.258 6 27.7841 6.63214 28.9093 7.75736C30.0345 8.88258 30.6667 10.4087 30.6667 12V24C30.6667 25.5913 30.0345 27.1174 28.9093 28.2426C27.7841 29.3679 26.258 30 24.6667 30H12.6667C11.0754 30 9.54926 29.3679 8.42405 28.2426C7.29883 27.1174 6.66669 25.5913 6.66669 24V12Z" stroke="#F5F5F5" stroke-width="2" stroke-linecap="round" stroke-linejoin="round"/>
    <path d="M14.1667 18C14.1667 19.1935 14.6408 20.3381 15.4847 21.182C16.3286 22.0259 17.4732 22.5 18.6667 22.5C19.8602 22.5 21.0048 22.0259 21.8487 21.182C22.6926 20.3381 23.1667 19.1935 23.1667 18C23.1667 16.8065 22.6926 15.6619 21.8487 14.818C21.0048 13.9741 19.8602 13.5 18.6667 13.5C17.4732 13.5 16.3286 13.9741 15.4847 14.818C14.6408 15.6619 14.1667 16.8065 14.1667 18Z" stroke="#F5F5F5" stroke-width="2" stroke-linecap="round" stroke-linejoin="round"/>
    <path d="M25.4167 11.25V11.265" stroke="#F5F5F5" stroke-width="2" stroke-linecap="round" stroke-linejoin="round"/>
    </g>
    <defs>
    <clipPath id="clip0_35_72">
    <rect x="0.666687" width="36" height="36" rx="8" fill="white"/>
    </clipPath>
    </defs>
</svg>
