<?xml version="1.0" encoding="UTF-8"?>
<svg version="1.1" viewBox="0 0 1168 1028" width="292" height="257" xmlns="http://www.w3.org/2000/svg">
<path transform="translate(409,35)" d="m0 0 12 1 11 4 8 6 6 7 4 8 1 4v26l-4 17-5 13-8 15-8 11-12 13-10 8-15 9-14 6-18 5-6 1-84 1-16 1-10 4-8 6-6 8-3 7-1 5v13l4 11 6 8 6 5 8 4 12 2 97 2 19 5 21 10 11 8 10 8v2l3 1 11 14 8 13 7 16 4 14 1 9 1 37h54l23 3 22 6 24 10 18 10 15 11 14 12 9 9 7 8 8 10 12 19 11 23 7 21 4 20 2 21v12l-2 10-7 12-9 8-10 4-5 1h-13l-10-3-9-6-7-8-5-11-1-4-3-29-5-16-5-12-8-14-13-16-13-11-15-9-16-7-15-4-18-2h-159l-14 1-21 5-16 7-14 9-10 8-11 11-10 15-9 19-5 18-1 10v178l3 23 5 19 7 19 8 17 11 17 10 13 11 12 7 7 14 11 15 10 23 12 22 8 26 6 7 1h39l14-2 27-7 16-6 16-8 15-9 16-12 12-11 9-9 11-14 8-12 9-16 8-19 6-21 3-15 3-35 3-10 7-10 8-7 9-4 5-1h13l10 3 9 6 9 10 4 10 1 6v13l-3 33-5 24-7 23-8 20-10 20-10 17-13 18-13 15-9 10-7 7-8 7-16 13-20 13-18 10-19 9-19 7-26 7-22 4-8 1h-59l-18-3-25-6-27-9-24-11-19-11-16-11-16-13-10-9-16-16-11-14-10-13-13-21-13-27-9-25-5-19-4-21-2-25v-187l5-26 6-20 9-20 10-18 10-14 13-15 9-9 11-9 14-10 17-10 21-9 15-5 24-5 8-1 57-1v-19l-2-14-6-12-9-8-8-4-4-1-33-1-63-1-15-2-18-6-16-8-13-9-17-17-10-15-7-14-6-18-2-10v-31l5-21 7-17 6-10 9-12 4-5h2l2-4 14-11 13-8 17-7 17-4 17-1 68-1 19-1 12-5 8-7 4-5 3-8 4-22 6-12 6-7 10-6z" fill="#1397D3"/>
<path transform="translate(830,35)" d="m0 0h8l12 3 10 6 7 8 5 10 2 7v8l-4 19-19 74-17 66-11 43-19 73-8 30-5 12-9 10-12 6-4 1h-16l-11-4-8-6-6-7-5-12-1-4v-9l9-38 14-56 19-74 13-50 17-66 7-25 6-11 9-8 12-5z" fill="#1397D3"/>
<path transform="translate(638,112)" d="m0 0h9l10 2 11 6 8 9 4 8 2 10-1 13-4 10-9 11-45 45 2 4 46 46 9 14 2 14-2 13-4 8-9 10-9 5-8 2h-15l-11-4-9-7-27-27-2-1v-2l-4-2-12-12-5-6-7-6-7-8-15-15-6-9-2-6-1-12 3-14 8-11 11-11 5-6 4-4h2l2-4 49-49h2v-2l8-6 8-4z" fill="#1397D3"/>
<path transform="translate(944,112)" d="m0 0h11l9 2 9 5 13 12 70 70 7 11 1 3 1 21-2 7-10 13-75 75-11 8-9 3h-17l-11-4-10-9-5-8-4-10v-13l3-11 8-11 11-11 5-6 6-5 25-25-1-5-16-16-8-7-17-17-7-8-7-11-2-7v-14l4-12 6-8 8-7 10-4z" fill="#1397D3"/>
<path transform="translate(407,556)" d="m0 0 16 1 10 4 8 6 7 10 3 8v97l-5 10-9 10-10 6-8 2h-13l-10-3-11-8-7-10-4-10v-94l6-12 9-10 12-6z" fill="#1397D3"/>
</svg>
